<?xml version="1.0" encoding="utf-8"?>
<!-- Generator: Adobe Illustrator 23.1.0, SVG Export Plug-In . SVG Version: 6.00 Build 0)  -->
<svg version="1.1" id="图层_1" xmlns="http://www.w3.org/2000/svg" xmlns:xlink="http://www.w3.org/1999/xlink" x="0px" y="0px"
	 viewBox="0 0 160 160" style="enable-background:new 0 0 160 160;" xml:space="preserve">
<style type="text/css">
	.st0{fill:#FFFFFF;}
	.st1{fill:none;stroke:#000000;stroke-miterlimit:10;}
	.st2{fill-rule:evenodd;clip-rule:evenodd;fill:none;stroke:#000000;stroke-miterlimit:10;}
	.st3{font-family:'AdobeSongStd-Light-GBpc-EUC-H';}
	.st4{font-size:5.8333px;}
</style>
<g>
	<path class="st0" d="M41.19,148.67c-3.14,0-5.69-2.55-5.69-5.69V17.19c0-3.14,2.55-5.69,5.69-5.69h77.62
		c3.14,0,5.69,2.55,5.69,5.69v125.78c0,3.14-2.55,5.69-5.69,5.69H41.19z"/>
	<path d="M118.81,12c2.86,0,5.19,2.33,5.19,5.19v125.79c0,2.86-2.33,5.19-5.19,5.19H41.19c-2.86,0-5.19-2.33-5.19-5.19V17.19
		c0-2.86,2.33-5.19,5.19-5.19H118.81 M118.81,11H41.19C37.77,11,35,13.77,35,17.19v125.79c0,3.42,2.77,6.19,6.19,6.19h77.62
		c3.42,0,6.19-2.77,6.19-6.19V17.19C125,13.77,122.23,11,118.81,11L118.81,11z"/>
</g>
<g>
	<line class="st1" x1="35" y1="123.75" x2="124.58" y2="123.75"/>
</g>
<polygon class="st2" points="59.52,136.12 55.42,138.48 51.32,136.12 51.32,131.38 55.42,129.02 59.52,131.38 "/>
<polygon class="st2" points="108.79,135.73 104.69,138.1 100.59,135.73 100.59,131 104.69,128.63 108.79,131 "/>
<polygon class="st2" points="83.79,135.73 79.69,138.1 75.59,135.73 75.59,131 79.69,128.63 83.79,131 "/>
<text transform="matrix(1 0 0 1 53.0771 144.2979)" class="st3 st4">A</text>
<text transform="matrix(1 0 0 1 102.6465 144.2979)" class="st3 st4">A</text>
<text transform="matrix(1 0 0 1 77.6611 144.2979)" class="st3 st4">A</text>
</svg>
